<?xml version="1.0" standalone="no"?>
<!DOCTYPE svg PUBLIC "-//W3C//DTD SVG 20010904//EN"
 "http://www.w3.org/TR/2001/REC-SVG-20010904/DTD/svg10.dtd">
<svg version="1.0" xmlns="http://www.w3.org/2000/svg"
 width="514.000000pt" height="514.000000pt" viewBox="0 0 514.000000 514.000000"
 preserveAspectRatio="xMidYMid meet">
<metadata>
Created by potrace 1.14, written by Peter Selinger 2001-2017
</metadata>
<g transform="translate(0.000000,514.000000) scale(0.100000,-0.100000)"
fill="#000000" stroke="none">
<path d="M2362 5000 c-67 -14 -138 -51 -235 -120 -142 -101 -251 -259 -312
-450 -54 -169 -43 -377 26 -484 l30 -48 -79 -86 c-176 -194 -291 -359 -462
-657 -58 -103 -162 -309 -199 -396 -59 -141 -83 -238 -90 -369 -14 -247 51
-469 187 -643 49 -62 178 -166 272 -217 30 -17 62 -35 70 -40 8 -5 44 -23 80
-39 42 -19 57 -30 43 -30 -19 -1 -23 -7 -23 -36 0 -90 90 -198 215 -260 95
-47 154 -66 285 -90 91 -18 474 -20 582 -4 40 6 105 15 143 20 249 36 457 116
580 223 33 28 35 27 49 -41 7 -30 4 -33 -51 -70 -93 -63 -217 -116 -348 -151
-90 -24 -124 -31 -205 -42 -47 -6 -112 -16 -146 -21 -33 -5 -168 -9 -300 -9
-194 0 -262 4 -359 20 -262 45 -424 120 -509 237 -47 65 -58 108 -46 173 18
93 9 143 -15 88 -8 -17 -22 -25 -60 -31 -187 -31 -299 -123 -360 -299 -18 -53
-20 -209 -2 -258 28 -77 89 -152 152 -188 19 -10 20 -23 20 -199 0 -186 -3
-213 -41 -331 -8 -23 -25 -65 -39 -92 -31 -60 -31 -62 -3 -58 16 2 30 17 44
48 l22 46 93 -7 c105 -8 203 -46 192 -74 -4 -12 9 -15 74 -15 l80 0 -1 183
c-1 177 0 184 26 239 71 152 178 27 178 -209 0 -47 5 -114 12 -149 l11 -64
933 0 932 0 7 85 c4 48 4 108 1 135 -4 28 -4 50 0 50 10 0 33 -33 34 -48 0
-14 35 -95 56 -132 8 -14 22 -40 31 -57 17 -33 17 -33 95 -33 43 0 78 2 78 5
0 7 -23 47 -38 66 -11 14 -7 18 30 28 24 7 73 11 110 9 60 -3 68 -6 80 -28 30
-58 52 -80 80 -80 15 0 28 3 28 8 0 4 -14 27 -30 52 -88 131 -190 382 -221
545 -24 121 -24 121 11 146 32 24 95 110 117 159 29 67 33 87 33 172 0 68 -6
107 -21 152 -73 206 -300 375 -490 364 l-69 -4 54 56 c97 100 156 204 203 357
24 80 27 107 31 283 3 170 1 209 -18 300 -73 361 -251 713 -526 1040 -101 120
-315 325 -410 392 -67 48 -224 136 -267 151 -7 2 -6 15 7 40 45 97 62 344 31
461 -52 197 -187 315 -375 330 -30 3 -74 1 -98 -4z m-101 -150 c27 -15 24 -55
-6 -78 -31 -25 -111 -38 -131 -21 -20 17 -18 26 19 63 28 29 43 37 90 45 5 0
17 -4 28 -9z m-135 -115 c9 -22 -74 -142 -115 -167 -65 -39 -81 -58 -81 -100
0 -25 9 -52 25 -76 49 -71 17 -242 -45 -242 -60 0 -82 212 -35 345 16 45 67
142 88 165 68 77 148 114 163 75z m-62 -201 c25 -9 19 -50 -9 -68 -33 -22 -58
-20 -81 5 -19 21 -18 21 9 45 28 24 52 29 81 18z m224 -90 c34 -10 26 -48 -11
-52 -29 -4 -44 16 -33 43 6 17 11 18 44 9z m491 -347 c9 -8 32 -20 51 -27 34
-14 110 -59 110 -66 0 -2 -15 -25 -33 -51 -19 -27 -37 -56 -40 -66 -8 -23 -34
-16 -92 23 -22 14 -57 34 -78 44 l-39 18 -31 -32 c-35 -36 -125 -98 -172 -119
-102 -46 -152 -56 -285 -55 -113 1 -130 3 -181 27 -55 26 -105 66 -63 50 10
-3 28 -12 40 -20 83 -53 289 -57 429 -8 45 16 142 67 175 93 48 37 116 108
151 160 33 47 36 48 58 29z m-1072 -497 c-26 -38 -47 -73 -47 -77 0 -3 -6 -14
-14 -22 -7 -9 -25 -36 -38 -61 -14 -25 -38 -67 -54 -95 -72 -122 -181 -361
-227 -495 -71 -208 -92 -320 -91 -495 0 -151 18 -234 71 -338 25 -51 141 -172
301 -316 106 -95 181 -186 165 -202 -19 -19 -224 74 -339 153 -86 59 -191 166
-232 238 -53 89 -68 127 -99 240 -19 70 -21 274 -3 355 13 64 63 220 85 270 7
17 23 53 35 80 50 115 138 286 205 400 37 64 182 282 209 316 12 14 32 40 46
59 31 42 62 71 68 65 3 -3 -16 -36 -41 -75z m1037 -21 c121 -33 204 -108 243
-219 46 -130 -60 -268 -262 -338 -54 -19 -211 -49 -305 -57 -36 -4 -99 -11
-140 -16 -294 -38 -383 -43 -452 -29 -89 18 -146 47 -198 100 -97 98 -91 240
15 345 85 85 287 158 500 181 28 3 115 12 195 20 80 9 147 18 149 20 9 9 217
3 255 -7z m-131 -1041 c13 -11 18 -43 25 -163 13 -216 -1 -308 -56 -367 -113
-119 -337 -133 -428 -25 -29 34 -40 58 -59 132 -18 66 -28 249 -18 305 l8 44
95 14 c52 7 116 17 143 22 55 12 123 25 187 38 65 14 84 14 103 0z m1098 -977
c-12 -22 -106 -84 -121 -79 -6 2 20 24 57 50 79 55 77 53 64 29z m-171 -105
c0 -2 -7 -7 -16 -10 -8 -3 -12 -2 -9 4 6 10 25 14 25 6z m-50 -26 c-8 -5 -19
-10 -25 -10 -5 0 -3 5 5 10 8 5 20 10 25 10 6 0 3 -5 -5 -10z m-1740 -20 c8
-5 11 -10 5 -10 -5 0 -17 5 -25 10 -8 5 -10 10 -5 10 6 0 17 -5 25 -10z m1690
0 c-8 -5 -19 -10 -25 -10 -5 0 -3 5 5 10 8 5 20 10 25 10 6 0 3 -5 -5 -10z
m-1630 -20 c8 -5 11 -10 5 -10 -5 0 -17 5 -25 10 -8 5 -10 10 -5 10 6 0 17 -5
25 -10z m1580 0 c-8 -5 -19 -10 -25 -10 -5 0 -3 5 5 10 8 5 20 10 25 10 6 0 3
-5 -5 -10z m-1510 -20 c13 -9 13 -10 0 -10 -8 0 -22 5 -30 10 -13 9 -13 10 0
10 8 0 22 -5 30 -10z m1450 0 c-8 -5 -22 -9 -30 -9 -10 0 -8 3 5 9 27 12 43
12 25 0z m-1950 -19 c0 -7 -28 -46 -73 -101 -85 -104 -118 -246 -81 -350 39
-107 35 -143 -10 -101 -22 21 -48 68 -75 134 -14 36 -14 138 0 174 33 82 59
123 106 170 65 64 133 102 133 74z m580 -1 c13 -9 13 -10 0 -9 -8 0 -24 4 -35
9 l-20 9 20 0 c11 0 27 -4 35 -9z m1300 0 c-8 -5 -22 -9 -30 -9 -10 0 -8 3 5
9 27 12 43 12 25 0z m-1200 -20 l25 -8 -25 -1 c-14 0 -32 4 -40 9 -13 9 -13
10 0 9 8 -1 26 -5 40 -9z m1115 0 c-11 -5 -29 -9 -40 -9 l-20 0 20 9 c11 5 29
9 40 9 l20 0 -20 -9z m-946 -26 c8 -8 -74 -2 -99 7 -16 5 -4 6 35 2 33 -3 62
-7 64 -9z m841 6 c-14 -4 -41 -8 -60 -8 l-35 1 35 7 c19 4 46 8 60 8 l25 0
-25 -8z m-190 -22 c-25 -3 -153 -7 -285 -7 -132 0 -260 4 -285 7 -25 4 104 7
285 7 182 0 310 -3 285 -7z m-1029 -557 c37 -38 39 -82 4 -116 -31 -32 -51
-31 -102 2 -63 40 -74 80 -35 126 10 11 30 17 59 17 36 0 50 -6 74 -29z m-391
-140 c25 -11 52 -21 61 -21 19 0 29 -45 29 -129 0 -51 -1 -53 -22 -46 -13 4
-62 8 -110 8 l-86 2 1 65 c1 36 -2 91 -7 123 l-7 57 48 -19 c26 -11 68 -29 93
-40z m2655 -27 c3 -26 9 -52 11 -58 3 -8 -29 -11 -106 -12 l-111 0 3 29 c3 28
8 32 64 48 34 9 74 23 90 31 16 8 32 13 35 11 4 -1 10 -24 14 -49z m8 -123
c18 -7 29 -24 41 -63 17 -55 19 -60 55 -140 31 -71 31 -72 -14 -69 -22 1 -67
-7 -100 -18 -33 -11 -63 -17 -66 -13 -9 10 -83 190 -99 239 -20 66 -13 73 79
73 44 0 91 -4 104 -9z m-2636 -72 c6 -6 22 -17 35 -23 22 -11 23 -19 29 -131
3 -66 4 -122 3 -124 -2 -2 -11 2 -20 9 -10 9 -55 15 -131 18 l-115 5 5 26 c3
14 12 57 21 96 9 38 16 85 16 102 l0 33 73 0 c40 0 78 -5 84 -11z"/>
<path d="M1552 1643 c3 -44 30 -57 48 -24 14 27 -3 61 -31 61 -17 0 -20 -5
-17 -37z"/>
<path d="M2370 3550 c-14 -4 -52 -8 -86 -9 -55 -1 -204 -20 -279 -36 -135 -28
-290 -95 -347 -149 -57 -54 -72 -90 -72 -177 -1 -70 1 -78 35 -125 84 -117
226 -140 594 -94 44 5 118 14 165 20 219 26 275 36 365 69 83 30 158 82 196
138 28 41 33 55 33 108 0 39 -7 76 -18 100 -25 52 -91 116 -148 143 -44 20
-61 22 -230 21 -101 -1 -194 -5 -208 -9z m358 -21 c91 -21 145 -56 194 -127
26 -37 32 -57 33 -98 0 -28 -6 -62 -13 -75 -16 -30 -65 -62 -128 -84 -82 -28
-237 -57 -454 -86 -41 -5 -109 -14 -150 -20 -132 -18 -368 -22 -418 -8 -80 22
-148 111 -166 217 -5 28 0 39 36 78 47 51 93 78 188 110 154 52 257 70 474 83
81 6 151 12 154 15 10 10 202 6 250 -5z"/>
<path d="M2468 2515 c-10 -11 -252 -54 -323 -57 l-50 -3 -3 -110 c-7 -234 50
-377 162 -406 23 -5 46 -12 53 -14 25 -8 160 22 201 45 53 30 96 84 107 135
11 50 11 223 0 333 l-8 82 -67 0 c-37 0 -69 -2 -72 -5z m104 -68 c-2 -16 2
-53 8 -83 6 -30 12 -97 12 -149 0 -114 -12 -141 -69 -150 -21 -4 -51 -11 -67
-16 -70 -22 -67 -31 -64 194 l3 202 40 8 c22 5 54 12 70 17 53 15 70 9 67 -23z
m-202 -202 c0 -104 -3 -191 -5 -193 -8 -8 -44 10 -68 34 -52 52 -67 103 -67
228 l0 115 33 4 c17 2 49 4 70 3 l39 -1 -2 -190z"/>
</g>
</svg>
